<svg width="480" height="360" viewBox="0 0 480 360" xmlns="http://www.w3.org/2000/svg">
<rect x="0" y="0" width="480" height="360" fill="#EFD4D0"/>

<g fill="#B84545">
<rect x="40" y="20" width="20" height="60"/>
<rect x="20" y="40" width="60" height="20"/>
<rect x="30" y="30" width="10" height="10"/>
<rect x="60" y="30" width="10" height="10"/>
<rect x="30" y="60" width="10" height="10"/>
<rect x="60" y="60" width="10" height="10"/>

<rect x="160" y="20" width="20" height="60"/>
<rect x="140" y="40" width="60" height="20"/>
<rect x="150" y="30" width="10" height="10"/>
<rect x="180" y="30" width="10" height="10"/>
<rect x="150" y="60" width="10" height="10"/>
<rect x="180" y="60" width="10" height="10"/>

<rect x="280" y="20" width="20" height="60"/>
<rect x="260" y="40" width="60" height="20"/>
<rect x="270" y="30" width="10" height="10"/>
<rect x="300" y="30" width="10" height="10"/>
<rect x="270" y="60" width="10" height="10"/>
<rect x="300" y="60" width="10" height="10"/>

<rect x="400" y="20" width="20" height="60"/>
<rect x="380" y="40" width="60" height="20"/>
<rect x="390" y="30" width="10" height="10"/>
<rect x="420" y="30" width="10" height="10"/>
<rect x="390" y="60" width="10" height="10"/>
<rect x="420" y="60" width="10" height="10"/>
</g>

<g fill="#8A2E2E">
<polygon points="110,50 120,40 130,50 120,60"/>
<polygon points="230,50 240,40 250,50 240,60"/>
<polygon points="350,50 360,40 370,50 360,60"/>
<polygon points="470,50 480,40 480,60"/>
<polygon points="0,50 10,40 0,60"/>
</g>

<g fill="#B84545">
<rect x="40" y="140" width="20" height="60"/>
<rect x="20" y="160" width="60" height="20"/>

<rect x="160" y="140" width="20" height="60"/>
<rect x="140" y="160" width="60" height="20"/>

<rect x="280" y="140" width="20" height="60"/>
<rect x="260" y="160" width="60" height="20"/>

<rect x="400" y="140" width="20" height="60"/>
<rect x="380" y="160" width="60" height="20"/>
</g>

<g fill="#8A2E2E">
<polygon points="50,100 60,90 70,100 60,110"/>
<polygon points="110,130 120,120 130,130 120,140"/>
<polygon points="170,100 180,90 190,100 180,110"/>
<polygon points="230,130 240,120 250,130 240,140"/>
<polygon points="290,100 300,90 310,100 300,110"/>
<polygon points="350,130 360,120 370,130 360,140"/>
<polygon points="410,100 420,90 430,100 420,110"/>
<polygon points="470,130 480,120 480,140"/>
<polygon points="0,130 10,120 0,140"/>
</g>

<g fill="#B84545">
<rect x="40" y="260" width="20" height="60"/>
<rect x="20" y="280" width="60" height="20"/>
<rect x="30" y="270" width="10" height="10"/>
<rect x="60" y="270" width="10" height="10"/>
<rect x="30" y="300" width="10" height="10"/>
<rect x="60" y="300" width="10" height="10"/>

<rect x="160" y="260" width="20" height="60"/>
<rect x="140" y="280" width="60" height="20"/>
<rect x="150" y="270" width="10" height="10"/>
<rect x="180" y="270" width="10" height="10"/>
<rect x="150" y="300" width="10" height="10"/>
<rect x="180" y="300" width="10" height="10"/>

<rect x="280" y="260" width="20" height="60"/>
<rect x="260" y="280" width="60" height="20"/>
<rect x="270" y="270" width="10" height="10"/>
<rect x="300" y="270" width="10" height="10"/>
<rect x="270" y="300" width="10" height="10"/>
<rect x="300" y="300" width="10" height="10"/>

<rect x="400" y="260" width="20" height="60"/>
<rect x="380" y="280" width="60" height="20"/>
<rect x="390" y="270" width="10" height="10"/>
<rect x="420" y="270" width="10" height="10"/>
<rect x="390" y="300" width="10" height="10"/>
<rect x="420" y="300" width="10" height="10"/>
</g>

<g fill="#8A2E2E">
<polygon points="110,220 120,210 130,220 120,230"/>
<polygon points="230,220 240,210 250,220 240,230"/>
<polygon points="350,220 360,210 370,220 360,230"/>
<polygon points="470,220 480,210 480,230"/>
<polygon points="0,220 10,210 0,230"/>

<polygon points="50,340 60,330 70,340 60,350"/>
<polygon points="170,340 180,330 190,340 180,350"/>
<polygon points="290,340 300,330 310,340 300,350"/>
<polygon points="410,340 420,330 430,340 420,350"/>
</g>
</svg>
