<svg width="480" height="360" viewBox="0 0 480 360" xmlns="http://www.w3.org/2000/svg">
<rect x="0" y="0" width="480" height="360" fill="#EED8C4"/>

<g fill="#C97A4F">
<rect x="0" y="0" width="480" height="30"/>
<rect x="0" y="60" width="480" height="30"/>
<rect x="0" y="120" width="480" height="30"/>
<rect x="0" y="180" width="480" height="30"/>
<rect x="0" y="240" width="480" height="30"/>
<rect x="0" y="300" width="480" height="30"/>
</g>

<g fill="#8F3E1E">
<rect x="30" y="30" width="30" height="30"/>
<rect x="90" y="30" width="30" height="30"/>
<rect x="150" y="30" width="30" height="30"/>
<rect x="210" y="30" width="30" height="30"/>
<rect x="270" y="30" width="30" height="30"/>
<rect x="330" y="30" width="30" height="30"/>
<rect x="390" y="30" width="30" height="30"/>
<rect x="450" y="30" width="30" height="30"/>

<rect x="0" y="90" width="30" height="30"/>
<rect x="60" y="90" width="30" height="30"/>
<rect x="120" y="90" width="30" height="30"/>
<rect x="180" y="90" width="30" height="30"/>
<rect x="240" y="90" width="30" height="30"/>
<rect x="300" y="90" width="30" height="30"/>
<rect x="360" y="90" width="30" height="30"/>
<rect x="420" y="90" width="30" height="30"/>

<rect x="30" y="150" width="30" height="30"/>
<rect x="90" y="150" width="30" height="30"/>
<rect x="150" y="150" width="30" height="30"/>
<rect x="210" y="150" width="30" height="30"/>
<rect x="270" y="150" width="30" height="30"/>
<rect x="330" y="150" width="30" height="30"/>
<rect x="390" y="150" width="30" height="30"/>
<rect x="450" y="150" width="30" height="30"/>

<rect x="0" y="210" width="30" height="30"/>
<rect x="60" y="210" width="30" height="30"/>
<rect x="120" y="210" width="30" height="30"/>
<rect x="180" y="210" width="30" height="30"/>
<rect x="240" y="210" width="30" height="30"/>
<rect x="300" y="210" width="30" height="30"/>
<rect x="360" y="210" width="30" height="30"/>
<rect x="420" y="210" width="30" height="30"/>

<rect x="30" y="270" width="30" height="30"/>
<rect x="90" y="270" width="30" height="30"/>
<rect x="150" y="270" width="30" height="30"/>
<rect x="210" y="270" width="30" height="30"/>
<rect x="270" y="270" width="30" height="30"/>
<rect x="330" y="270" width="30" height="30"/>
<rect x="390" y="270" width="30" height="30"/>
<rect x="450" y="270" width="30" height="30"/>

<rect x="0" y="330" width="30" height="30"/>
<rect x="60" y="330" width="30" height="30"/>
<rect x="120" y="330" width="30" height="30"/>
<rect x="180" y="330" width="30" height="30"/>
<rect x="240" y="330" width="30" height="30"/>
<rect x="300" y="330" width="30" height="30"/>
<rect x="360" y="330" width="30" height="30"/>
<rect x="420" y="330" width="30" height="30"/>
</g>

<g fill="#EED8C4">
<rect x="60" y="30" width="6" height="30"/>
<rect x="120" y="30" width="6" height="30"/>
<rect x="180" y="30" width="6" height="30"/>
<rect x="240" y="30" width="6" height="30"/>
<rect x="300" y="30" width="6" height="30"/>
<rect x="360" y="30" width="6" height="30"/>
<rect x="420" y="30" width="6" height="30"/>
<rect x="30" y="90" width="6" height="30"/>
<rect x="90" y="90" width="6" height="30"/>
<rect x="150" y="90" width="6" height="30"/>
<rect x="210" y="90" width="6" height="30"/>
<rect x="270" y="90" width="6" height="30"/>
<rect x="330" y="90" width="6" height="30"/>
<rect x="390" y="90" width="6" height="30"/>
<rect x="450" y="90" width="6" height="30"/>
</g>
</svg>
