<svg width="480" height="360" viewBox="0 0 480 360" xmlns="http://www.w3.org/2000/svg">
<rect x="0" y="0" width="480" height="360" fill="#F0D5D5"/>

<g fill="#D76060">
<polygon points="0,0 60,60 120,0 120,40 60,100 0,40"/>
<polygon points="120,0 180,60 240,0 240,40 180,100 120,40"/>
<polygon points="240,0 300,60 360,0 360,40 300,100 240,40"/>
<polygon points="360,0 420,60 480,0 480,40 420,100 360,40"/>
</g>

<g fill="#B84545">
<polygon points="0,40 60,100 120,40 120,80 60,140 0,80"/>
<polygon points="120,40 180,100 240,40 240,80 180,140 120,80"/>
<polygon points="240,40 300,100 360,40 360,80 300,140 240,80"/>
<polygon points="360,40 420,100 480,40 480,80 420,140 360,80"/>
</g>

<g fill="#8A2E2E">
<polygon points="0,80 60,140 120,80 120,120 60,180 0,120"/>
<polygon points="120,80 180,140 240,80 240,120 180,180 120,120"/>
<polygon points="240,80 300,140 360,80 360,120 300,180 240,120"/>
<polygon points="360,80 420,140 480,80 480,120 420,180 360,120"/>
</g>

<g fill="#D76060">
<polygon points="0,180 60,240 120,180 120,220 60,280 0,220"/>
<polygon points="120,180 180,240 240,180 240,220 180,280 120,220"/>
<polygon points="240,180 300,240 360,180 360,220 300,280 240,220"/>
<polygon points="360,180 420,240 480,180 480,220 420,280 360,220"/>
</g>

<g fill="#B84545">
<polygon points="0,220 60,280 120,220 120,260 60,320 0,260"/>
<polygon points="120,220 180,280 240,220 240,260 180,320 120,260"/>
<polygon points="240,220 300,280 360,220 360,260 300,320 240,260"/>
<polygon points="360,220 420,280 480,220 480,260 420,320 360,260"/>
</g>

<g fill="#8A2E2E">
<polygon points="0,260 60,320 120,260 120,300 60,360 0,300"/>
<polygon points="120,260 180,320 240,260 240,300 180,360 120,300"/>
<polygon points="240,260 300,320 360,260 360,300 300,360 240,300"/>
<polygon points="360,260 420,320 480,260 480,300 420,360 360,300"/>
</g>

<g fill="#D76060">
<polygon points="0,300 60,360 120,300 120,360 0,360"/>
<polygon points="120,300 180,360 240,300 240,360 120,360"/>
<polygon points="240,300 300,360 360,300 360,360 240,360"/>
<polygon points="360,300 420,360 480,300 480,360 360,360"/>
</g>
</svg>
