<svg width="480" height="360" viewBox="0 0 480 360" xmlns="http://www.w3.org/2000/svg">
<rect x="0" y="0" width="480" height="360" fill="#C8ECE0"/>

<circle cx="60" cy="60" r="44" fill="#4FAE92"/>
<circle cx="60" cy="60" r="28" fill="#8AD6BC"/>
<circle cx="60" cy="60" r="14" fill="#2D7A5E"/>
<circle cx="24" cy="60" r="16" fill="#4FAE92"/>
<circle cx="96" cy="60" r="16" fill="#4FAE92"/>
<circle cx="60" cy="24" r="16" fill="#4FAE92"/>
<circle cx="60" cy="96" r="16" fill="#4FAE92"/>

<circle cx="180" cy="60" r="30" fill="#2D7A5E"/>
<circle cx="180" cy="60" r="18" fill="#8AD6BC"/>
<polygon points="180,20 200,60 180,100 160,60" fill="#4FAE92"/>
<polygon points="140,60 180,40 220,60 180,80" fill="#4FAE92"/>

<circle cx="300" cy="60" r="44" fill="#8AD6BC"/>
<circle cx="300" cy="60" r="28" fill="#2D7A5E"/>
<circle cx="300" cy="60" r="14" fill="#C8ECE0"/>
<polygon points="300,16 316,60 300,104 284,60" fill="#4FAE92"/>

<circle cx="420" cy="60" r="30" fill="#4FAE92"/>
<polygon points="420,20 440,60 420,100 400,60" fill="#2D7A5E"/>
<polygon points="380,60 420,40 460,60 420,80" fill="#2D7A5E"/>
<circle cx="420" cy="60" r="10" fill="#8AD6BC"/>

<circle cx="120" cy="180" r="30" fill="#2D7A5E"/>
<circle cx="120" cy="180" r="18" fill="#8AD6BC"/>
<polygon points="120,140 140,180 120,220 100,180" fill="#4FAE92"/>
<polygon points="80,180 120,160 160,180 120,200" fill="#4FAE92"/>

<circle cx="240" cy="180" r="44" fill="#4FAE92"/>
<circle cx="240" cy="180" r="28" fill="#8AD6BC"/>
<circle cx="240" cy="180" r="14" fill="#2D7A5E"/>
<circle cx="204" cy="180" r="16" fill="#4FAE92"/>
<circle cx="276" cy="180" r="16" fill="#4FAE92"/>
<circle cx="240" cy="144" r="16" fill="#4FAE92"/>
<circle cx="240" cy="216" r="16" fill="#4FAE92"/>

<circle cx="360" cy="180" r="30" fill="#8AD6BC"/>
<circle cx="360" cy="180" r="18" fill="#2D7A5E"/>
<polygon points="360,140 380,180 360,220 340,180" fill="#4FAE92"/>

<circle cx="0" cy="180" r="40" fill="#4FAE92"/>
<circle cx="0" cy="180" r="20" fill="#2D7A5E"/>
<circle cx="480" cy="180" r="40" fill="#8AD6BC"/>
<circle cx="480" cy="180" r="20" fill="#4FAE92"/>

<circle cx="60" cy="300" r="30" fill="#4FAE92"/>
<polygon points="60,260 80,300 60,340 40,300" fill="#2D7A5E"/>
<polygon points="20,300 60,280 100,300 60,320" fill="#2D7A5E"/>
<circle cx="60" cy="300" r="10" fill="#8AD6BC"/>

<circle cx="180" cy="300" r="44" fill="#8AD6BC"/>
<circle cx="180" cy="300" r="28" fill="#4FAE92"/>
<circle cx="180" cy="300" r="14" fill="#2D7A5E"/>

<circle cx="300" cy="300" r="30" fill="#2D7A5E"/>
<circle cx="300" cy="300" r="18" fill="#8AD6BC"/>
<polygon points="300,260 320,300 300,340 280,300" fill="#4FAE92"/>
<polygon points="260,300 300,280 340,300 300,320" fill="#4FAE92"/>

<circle cx="420" cy="300" r="44" fill="#4FAE92"/>
<circle cx="420" cy="300" r="28" fill="#2D7A5E"/>
<circle cx="420" cy="300" r="14" fill="#C8ECE0"/>
<polygon points="420,256 436,300 420,344 404,300" fill="#8AD6BC"/>
</svg>
